<?xml version="1.0" standalone="no"?>
<!DOCTYPE svg PUBLIC "-//W3C//DTD SVG 20010904//EN"
 "http://www.w3.org/TR/2001/REC-SVG-20010904/DTD/svg10.dtd">
<svg version="1.0" xmlns="http://www.w3.org/2000/svg"
 width="1120.000000pt" height="1120.000000pt" viewBox="0 0 1120.000000 1120.000000"
 preserveAspectRatio="xMidYMid meet">
<metadata>
Created by potrace 1.14, written by Peter Selinger 2001-2017
</metadata>
<g transform="translate(0.000000,1120.000000) scale(0.100000,-0.100000)"
fill="#000000" stroke="none">
<path d="M7511 11172 c-67 -76 -154 -241 -181 -342 -39 -146 -52 -295 -36
-415 11 -86 16 -118 22 -126 3 -5 8 -21 10 -36 3 -15 10 -33 16 -40 6 -7 7
-13 4 -13 -4 0 14 -40 40 -89 43 -83 102 -153 172 -208 l23 -18 -46 -100 c-26
-55 -59 -125 -73 -155 -14 -30 -25 -58 -24 -62 1 -5 -2 -8 -8 -8 -5 0 -10 -5
-10 -11 0 -5 -13 -36 -28 -67 -16 -31 -30 -61 -32 -67 -1 -5 -19 -46 -40 -90
-20 -44 -45 -97 -54 -118 -10 -21 -26 -57 -37 -80 l-19 -42 -1 35 c-5 144 -43
400 -84 580 -32 133 -102 339 -159 462 -14 31 -26 59 -26 61 0 9 -122 222
-134 235 -15 15 -32 2 -88 -68 -72 -90 -135 -235 -153 -350 -9 -57 -10 -223
-1 -275 24 -137 73 -267 143 -371 50 -76 179 -208 212 -219 12 -3 21 -10 21
-14 0 -7 110 -62 135 -67 72 -16 120 -34 117 -46 -2 -7 -11 -31 -21 -53 -10
-22 -44 -101 -75 -175 -32 -74 -63 -148 -71 -165 -7 -16 -29 -70 -49 -120 -20
-49 -41 -99 -46 -110 -26 -58 -47 -113 -53 -137 -4 -16 -11 -28 -15 -28 -6 0
-50 137 -58 180 0 3 -4 12 -7 20 -7 17 -55 182 -71 245 -18 72 -83 268 -106
320 -5 11 -28 65 -51 120 -54 131 -129 277 -202 395 -56 89 -147 219 -174 248
-7 7 -29 33 -49 58 -20 24 -54 63 -75 85 l-38 41 -44 -69 c-24 -37 -54 -90
-67 -118 -138 -299 -137 -705 2 -1015 12 -25 26 -56 32 -70 6 -14 25 -49 43
-78 18 -29 33 -56 33 -61 0 -5 3 -11 8 -13 4 -1 26 -29 50 -61 117 -157 300
-292 462 -341 30 -10 62 -20 70 -25 8 -4 35 -9 60 -10 41 -3 73 -6 107 -10 12
-1 8 -21 -16 -76 -5 -11 -18 -45 -30 -75 -11 -30 -26 -68 -32 -85 -7 -16 -13
-33 -13 -37 -1 -3 -4 -10 -8 -14 -5 -4 -8 -17 -8 -29 0 -12 -3 -25 -7 -29 -5
-4 -8 -11 -9 -14 0 -4 -4 -16 -9 -27 -21 -52 -47 -122 -50 -135 -4 -15 -87
-251 -100 -283 -7 -16 -10 -14 -30 15 -12 18 -38 63 -58 100 -50 92 -60 111
-73 128 -6 8 -32 56 -58 105 -26 50 -52 94 -57 100 -5 5 -9 17 -9 27 0 10 -4
18 -9 18 -5 0 -17 20 -28 45 -10 25 -21 45 -25 45 -5 0 -8 4 -8 9 0 5 -19 44
-43 87 -38 69 -112 210 -213 404 -16 30 -32 57 -36 58 -5 2 -8 8 -8 14 0 11
-183 332 -246 430 -24 37 -44 73 -44 78 0 6 -4 10 -8 10 -4 0 -21 22 -37 50
-17 27 -33 50 -37 50 -5 0 -8 4 -8 10 0 5 -6 18 -14 27 -41 50 -86 114 -86
122 0 8 -30 25 -35 19 -17 -20 -91 -177 -109 -231 -51 -153 -70 -277 -69 -462
0 -111 7 -172 28 -278 23 -110 23 -112 59 -215 104 -303 268 -532 513 -716 87
-65 252 -157 318 -176 174 -50 170 -49 280 -56 44 -4 81 -7 83 -9 2 -1 -13
-51 -33 -111 -20 -60 -38 -116 -40 -124 -2 -8 -15 -53 -30 -100 -59 -189 -85
-278 -99 -330 -8 -30 -20 -71 -26 -90 -6 -19 -13 -43 -15 -54 -7 -29 -10 -28
-41 11 -43 55 -129 158 -194 233 -12 14 -38 45 -58 69 -21 24 -48 56 -62 71
-57 62 -100 112 -100 115 0 2 -12 16 -27 32 -16 15 -48 51 -73 79 -177 200
-157 178 -320 355 -237 257 -442 464 -589 598 -46 42 -91 84 -100 94 -27 30
-38 19 -60 -60 -33 -122 -44 -227 -37 -353 8 -155 20 -219 67 -375 26 -85 130
-319 148 -335 4 -3 26 -36 51 -74 24 -38 49 -74 55 -80 5 -6 23 -27 39 -46 79
-96 231 -242 298 -285 8 -5 43 -29 77 -52 51 -35 239 -133 255 -133 3 0 17 -5
33 -12 15 -6 33 -12 38 -14 6 -1 30 -9 55 -17 108 -36 210 -51 363 -51 64 -1
117 -3 117 -6 -1 -4 -21 -85 -35 -140 -23 -92 -60 -242 -76 -310 -11 -47 -22
-92 -24 -100 -9 -41 -77 -368 -80 -385 -1 -11 -3 -24 -4 -29 -1 -11 -10 -1
-91 94 -30 36 -59 70 -65 76 -5 7 -26 31 -44 54 -19 23 -40 48 -45 54 -6 6
-40 45 -76 86 -36 41 -67 77 -70 80 -3 3 -20 23 -39 45 -19 22 -57 65 -85 96
-28 30 -72 80 -97 110 -26 30 -62 70 -80 90 -19 20 -58 62 -88 95 -307 337
-723 752 -789 788 -9 5 -14 5 -10 1 4 -4 3 -16 -3 -27 -6 -11 -12 -27 -14 -36
-1 -9 -8 -35 -13 -57 -21 -80 -25 -122 -26 -250 0 -134 5 -194 23 -280 20 -93
55 -210 64 -216 5 -3 8 -9 7 -13 -7 -23 90 -219 160 -322 123 -185 278 -343
455 -465 131 -90 301 -165 470 -209 102 -26 166 -34 293 -34 l112 -1 0 -25 c0
-14 -5 -43 -11 -65 -5 -22 -11 -58 -13 -81 -2 -22 -6 -49 -9 -60 -3 -10 -8
-41 -12 -69 -3 -27 -7 -61 -10 -75 -6 -38 -14 -96 -20 -148 -3 -26 -8 -58 -10
-72 -3 -14 -7 -50 -10 -80 -4 -30 -8 -68 -10 -85 -12 -101 -23 -228 -31 -340
-3 -49 -7 -106 -9 -125 -22 -224 -22 -1085 1 -1121 3 -5 1 -9 -3 -9 -11 0
-103 91 -103 102 0 4 -4 8 -9 8 -5 0 -42 33 -84 73 -41 39 -86 81 -98 91 -24
20 -154 132 -176 152 -9 8 1 22 41 55 28 24 68 67 88 96 42 60 104 187 113
229 36 173 37 296 6 421 -18 72 -74 211 -90 223 -3 3 -15 19 -26 35 -28 44
-89 108 -139 143 l-44 32 -6 -27 c-3 -16 -8 -55 -11 -88 -3 -33 -8 -78 -10
-101 -13 -108 -24 -432 -26 -726 0 -115 -2 -208 -4 -208 -1 0 -13 10 -27 22
-37 34 -126 100 -252 191 -61 44 -113 81 -115 83 -2 2 9 14 25 26 188 148 288
428 248 696 -30 201 -117 360 -254 464 -63 47 -64 46 -75 -62 -3 -30 -8 -71
-10 -90 -4 -35 -14 -197 -20 -345 -2 -44 -5 -202 -6 -351 l-2 -272 -27 17
c-101 63 -124 77 -135 89 -8 6 -16 12 -20 12 -3 0 -38 22 -78 48 -40 27 -81
51 -91 55 -17 7 -16 10 12 36 94 91 156 232 169 386 6 79 6 71 -1 142 -18 161
-95 329 -205 447 -43 46 -148 126 -181 139 -8 3 -32 12 -52 21 l-38 16 5 -77
c3 -43 8 -89 11 -103 2 -14 7 -43 10 -65 2 -22 6 -47 8 -55 6 -29 16 -85 20
-110 2 -14 10 -47 16 -75 6 -27 14 -59 16 -70 2 -11 6 -29 8 -40 3 -11 19 -85
36 -165 17 -80 33 -154 35 -165 13 -56 16 -73 21 -110 4 -22 10 -48 15 -57 6
-10 5 -19 -1 -23 -10 -6 -46 13 -200 102 -30 18 -81 45 -112 60 -53 26 -71 46
-50 55 31 12 106 152 119 223 8 38 7 191 -1 230 -16 72 -75 218 -96 235 -3 3
-17 21 -30 40 -14 19 -43 52 -65 73 -38 36 -131 102 -144 102 -3 0 -11 4 -18
8 -7 4 -30 14 -51 21 -36 13 -40 13 -44 -2 -9 -36 0 -204 17 -297 7 -41 45
-182 64 -238 30 -86 103 -251 115 -259 6 -4 8 -8 3 -8 -4 0 4 -22 18 -50 14
-27 23 -50 20 -50 -3 0 -91 43 -195 95 l-190 95 30 50 c31 53 40 81 46 144 2
22 5 45 8 52 3 7 1 16 -5 19 -5 4 -7 11 -3 16 10 18 -35 146 -72 200 -72 109
-183 180 -283 183 -20 1 -24 -4 -25 -27 -1 -16 2 -31 6 -33 4 -3 8 -16 8 -28
0 -25 41 -158 67 -216 58 -132 90 -187 190 -327 19 -28 24 -30 -304 122 -73
34 -81 40 -74 59 13 34 -2 160 -21 183 -6 7 -8 13 -4 13 13 0 -55 98 -102 145
-58 59 -67 66 -150 106 -76 38 -138 50 -129 25 12 -30 79 -131 93 -139 8 -4
14 -13 14 -18 0 -9 54 -78 105 -135 6 -6 24 -28 40 -49 17 -21 35 -43 40 -50
26 -28 55 -75 46 -75 -10 0 -123 45 -154 62 -11 5 -21 8 -23 5 -4 -3 159 -87
176 -90 3 0 10 -5 15 -10 6 -4 33 -19 60 -32 l50 -23 -35 -2 c-19 -1 -129 -2
-244 -2 -191 -1 -296 -11 -296 -28 0 -20 130 -93 200 -113 40 -11 230 -18 245
-9 6 4 19 8 30 9 29 5 125 62 149 88 l20 23 36 -22 c19 -13 76 -44 125 -70 92
-49 117 -65 100 -67 -6 0 -19 -2 -30 -4 -11 -2 -41 -6 -66 -8 -160 -18 -399
-106 -528 -194 -8 -5 25 -36 64 -61 65 -41 147 -61 234 -57 94 4 108 7 179 42
95 46 175 132 206 219 l11 34 155 -93 c181 -107 204 -123 193 -130 -12 -6
-164 -55 -193 -61 -14 -3 -45 -10 -70 -17 -25 -6 -56 -13 -70 -15 -25 -5 -207
-42 -245 -51 -11 -2 -29 -6 -40 -7 -48 -8 -91 -17 -107 -22 -9 -3 -25 -7 -35
-9 -82 -20 -119 -30 -197 -56 -107 -36 -166 -61 -166 -70 0 -4 24 -25 53 -47
176 -136 447 -189 672 -130 56 14 169 60 173 70 2 4 9 8 16 8 18 0 106 68 150
115 49 54 84 116 111 198 19 58 24 67 36 55 15 -14 277 -190 294 -197 31 -13
46 -51 20 -51 -8 0 -77 -23 -152 -51 -76 -28 -142 -52 -148 -54 -5 -1 -21 -7
-35 -12 -14 -6 -56 -23 -95 -38 -38 -15 -84 -34 -102 -41 -17 -8 -33 -14 -36
-14 -3 0 -18 -5 -34 -12 -15 -6 -30 -12 -33 -13 -3 0 -16 -7 -30 -15 -14 -7
-27 -13 -30 -13 -6 1 -48 -14 -75 -27 -11 -5 -76 -32 -145 -61 -69 -29 -137
-60 -153 -69 l-27 -17 42 -29 c24 -16 45 -31 48 -35 7 -8 111 -48 138 -54 12
-2 25 -6 30 -8 15 -10 110 -20 182 -20 140 0 255 30 395 104 153 80 285 229
341 384 9 28 19 52 20 53 2 4 179 -123 200 -143 6 -5 27 -21 47 -35 20 -14 37
-29 37 -35 0 -5 -59 -32 -130 -60 -71 -27 -130 -53 -130 -56 0 -3 -7 -6 -15
-6 -21 0 -385 -183 -385 -194 0 -5 -5 -9 -11 -9 -10 0 -115 -69 -146 -95 -6
-5 -41 -35 -77 -65 -35 -30 -65 -60 -65 -67 -1 -10 95 -50 111 -45 4 1 19 -3
34 -8 28 -11 230 -15 274 -6 14 3 35 8 47 10 61 12 149 41 155 50 4 6 8 8 8 3
0 -16 177 85 235 135 91 77 187 207 201 271 1 4 3 9 4 12 1 3 3 9 4 14 0 5 4
12 8 16 6 6 205 -156 304 -248 l46 -44 -33 -13 c-178 -71 -341 -141 -424 -183
-103 -53 -216 -116 -225 -126 -9 -10 -69 -51 -75 -51 -4 0 -12 -6 -20 -12 -7
-7 -30 -27 -51 -44 -107 -87 -136 -124 -96 -124 10 0 22 -3 26 -7 3 -4 12 -8
19 -9 7 -1 40 -9 74 -17 59 -14 236 -16 303 -4 138 26 307 95 371 153 8 8 19
14 24 14 23 0 164 163 199 230 l39 73 106 -109 c109 -112 235 -251 259 -285 8
-11 25 -32 39 -47 29 -31 182 -235 205 -272 8 -14 21 -63 28 -110 6 -47 14
-96 16 -110 2 -14 6 -36 8 -50 3 -13 8 -42 11 -65 4 -22 15 -78 27 -125 11
-47 22 -94 24 -105 5 -24 9 -41 28 -121 8 -34 17 -72 20 -85 3 -13 7 -33 10
-44 21 -89 28 -123 32 -140 2 -11 11 -49 20 -84 16 -65 21 -87 30 -128 2 -12
9 -35 15 -50 6 -16 10 -29 10 -30 -1 -2 -1 -4 0 -5 0 -2 2 -12 4 -23 6 -31 75
-238 84 -254 5 -8 32 -15 67 -17 105 -6 314 -13 554 -19 129 -3 247 -8 263 -9
24 -3 27 -1 21 17 -4 11 -15 30 -25 41 -11 11 -19 23 -19 27 0 3 -25 48 -56
99 -30 51 -94 172 -143 269 -75 151 -114 243 -232 545 -10 27 -19 56 -19 65 0
10 -4 21 -8 27 -7 7 -24 57 -37 104 -1 3 -7 23 -13 45 -6 22 -12 43 -12 47 0
4 -7 26 -15 49 -9 23 -17 51 -19 63 -3 12 -19 80 -36 151 -17 72 -33 141 -36
155 -12 61 -37 197 -39 215 -2 11 -6 34 -9 50 -2 17 -10 68 -16 115 -7 47 -14
99 -16 115 -2 17 -6 55 -9 85 -3 30 -7 75 -10 100 -10 81 -22 246 -31 435 -13
246 -6 831 11 1025 2 25 6 83 9 130 5 77 16 196 20 228 3 17 9 16 65 -12 83
-43 237 -90 366 -113 54 -10 368 -9 430 1 28 4 81 14 119 22 38 7 72 11 77 9
4 -3 10 -1 13 4 3 5 30 15 58 22 102 24 316 110 330 132 4 7 8 8 8 4 0 -18
207 116 320 207 103 84 201 186 270 281 58 81 134 214 126 222 -2 2 -53 6
-114 7 -60 2 -114 6 -121 10 -6 4 -11 3 -11 -1 0 -7 -47 -9 -75 -3 -5 1 -12 1
-15 0 -3 -1 -32 -3 -65 -5 -84 -4 -200 -14 -233 -19 -15 -3 -49 -7 -77 -11
-27 -3 -61 -7 -75 -10 -14 -3 -38 -7 -55 -10 -44 -6 -220 -43 -294 -61 -36 -9
-72 -17 -80 -19 -15 -3 -91 -23 -226 -60 -33 -9 -202 -63 -375 -120 -173 -58
-318 -101 -321 -97 -4 4 -3 31 2 61 6 29 8 59 5 67 -3 8 -1 14 5 14 6 0 8 3 6
8 -3 4 -1 32 4 62 5 30 11 73 13 95 6 54 25 175 41 255 2 14 7 41 9 60 3 19 7
45 10 56 2 12 7 39 10 60 6 34 16 93 22 117 1 4 2 16 3 27 1 20 2 19 39 -4 20
-14 62 -37 92 -52 30 -14 67 -32 82 -40 14 -8 31 -14 36 -14 6 0 23 -5 39 -12
29 -12 33 -13 73 -22 14 -3 45 -10 70 -16 139 -35 393 -42 526 -16 12 2 37 7
55 10 19 3 45 8 59 11 14 2 39 7 55 11 51 10 270 80 290 92 6 4 12 7 15 7 3 0
28 12 57 27 28 14 54 24 57 21 3 -4 6 -1 6 5 0 6 10 14 23 18 28 8 261 163
307 204 119 107 260 256 260 275 0 3 6 13 13 20 25 29 37 44 37 49 0 3 12 27
28 53 15 26 33 60 39 75 12 27 12 28 -25 29 -123 3 -454 0 -492 -5 -25 -3 -70
-8 -100 -11 -30 -3 -66 -7 -80 -9 -14 -3 -43 -7 -65 -10 -70 -10 -107 -17
-230 -43 -66 -14 -128 -27 -138 -28 -9 -2 -21 -6 -25 -9 -5 -3 -22 -8 -38 -10
-57 -11 -74 -15 -151 -36 -88 -24 -101 -28 -233 -71 -52 -17 -99 -32 -105 -33
-11 -2 -202 -65 -225 -73 -8 -3 -19 -7 -25 -9 -5 -1 -63 -21 -127 -43 -65 -22
-118 -37 -118 -33 0 4 -5 0 -10 -8 -13 -20 -13 -2 0 53 5 23 24 107 41 187 39
182 32 153 68 305 17 72 34 140 36 153 l6 23 44 -31 c56 -39 238 -130 258
-130 9 0 18 -4 21 -9 3 -5 18 -11 33 -14 16 -3 55 -12 88 -20 33 -8 82 -18
108 -22 27 -3 59 -9 70 -12 40 -9 278 -10 340 -1 34 5 76 11 92 13 199 23 477
133 673 267 83 56 103 72 198 159 142 129 274 318 340 486 31 79 64 203 64
241 0 20 2 20 -120 -13 -27 -8 -95 -26 -105 -28 -5 -1 -14 -5 -20 -8 -9 -6
-51 -18 -81 -24 -6 -2 -91 -29 -190 -61 -98 -32 -183 -59 -189 -60 -5 -1 -48
-17 -95 -34 -47 -18 -92 -33 -100 -35 -8 -2 -60 -20 -115 -40 -55 -20 -107
-38 -115 -40 -8 -2 -73 -24 -145 -50 -71 -25 -134 -47 -140 -49 -11 -3 -30
-10 -80 -29 -16 -7 -32 -12 -35 -13 -3 0 -12 -4 -20 -7 -8 -3 -42 -15 -75 -26
-67 -23 -189 -67 -280 -102 -33 -13 -65 -24 -71 -25 -5 -1 -74 -27 -153 -58
-78 -31 -146 -56 -151 -56 -4 0 -4 12 1 28 10 27 76 270 84 307 3 11 30 106
60 210 31 105 58 201 61 215 3 13 11 31 17 39 7 8 11 16 10 18 -2 1 -3 7 -3
13 0 9 29 -12 66 -47 7 -7 15 -13 18 -13 3 0 22 -11 42 -25 55 -37 233 -116
259 -114 3 0 22 -5 42 -10 20 -6 40 -8 45 -5 4 3 8 1 8 -3 0 -10 47 -14 190
-15 155 0 227 11 416 65 62 17 248 98 252 109 2 4 9 8 14 8 19 0 160 92 243
159 149 120 277 265 377 428 45 72 97 170 103 193 1 3 7 19 14 35 36 84 66
196 76 280 3 28 8 60 11 73 5 26 3 27 -67 5 -30 -9 -57 -18 -61 -19 -5 -1 -10
-3 -13 -4 -3 -1 -8 -3 -12 -5 -5 -1 -17 -5 -28 -10 -56 -22 -175 -66 -182 -67
-5 0 -17 -7 -28 -14 -11 -8 -27 -14 -37 -14 -10 0 -18 -4 -18 -9 0 -5 -12 -12
-26 -15 -22 -6 -142 -64 -394 -192 -30 -15 -57 -30 -60 -33 -3 -3 -18 -13 -35
-21 -16 -8 -52 -27 -78 -43 -27 -15 -83 -46 -125 -69 -42 -23 -95 -52 -117
-64 -22 -13 -58 -32 -80 -44 -65 -36 -136 -76 -195 -109 -115 -66 -456 -221
-485 -221 -8 0 -15 -5 -15 -11 0 -5 -4 -8 -9 -4 -5 3 -12 1 -16 -5 -4 -6 -10
-8 -15 -5 -5 3 -11 1 -15 -5 -4 -6 -10 -8 -15 -5 -5 3 5 45 21 93 16 48 30 89
30 92 3 10 8 26 45 140 21 63 39 120 40 125 4 16 117 340 120 344 1 1 29 -13
61 -33 32 -19 94 -47 138 -62 109 -38 307 -44 434 -13 71 16 256 91 271 109 3
4 28 21 55 40 164 110 309 334 330 507 3 26 7 48 10 51 2 3 0 13 -5 22 -8 15
-16 16 -45 10 -19 -4 -35 -6 -35 -3 0 3 -6 0 -13 -6 -8 -6 -16 -9 -19 -6 -6 6
-152 -26 -248 -55 -41 -12 -79 -23 -85 -25 -5 -1 -23 -7 -40 -14 -16 -6 -68
-26 -115 -43 -148 -56 -339 -156 -518 -270 -15 -10 -39 -24 -54 -33 -16 -9
-28 -19 -28 -23 0 -4 -11 -12 -25 -19 -14 -6 -25 -10 -25 -8 0 1 18 51 41 111
22 60 42 114 43 119 1 6 10 27 19 49 9 21 17 42 17 47 0 5 6 23 14 41 12 28
24 57 31 78 5 14 26 67 35 85 5 11 12 30 15 43 6 20 11 22 43 16 78 -15 185
-4 288 31 66 22 202 89 214 104 3 4 20 18 39 31 197 137 370 425 395 658 4 30
2 32 -17 26 -12 -4 -34 -15 -49 -25 -14 -11 -31 -19 -36 -19 -6 0 -12 -3 -14
-7 -1 -5 -29 -25 -60 -46 -31 -21 -66 -46 -77 -55 -34 -29 -55 -46 -101 -81
-25 -19 -52 -42 -61 -50 -9 -9 -29 -27 -45 -41 -94 -80 -170 -145 -174 -151
-9 -10 -154 -134 -205 -174 -27 -22 -53 -44 -57 -50 -4 -5 -9 -7 -12 -4 -3 2
24 74 60 159 35 84 64 159 64 166 0 7 3 14 8 16 6 3 50 101 91 208 15 38 37
90 59 135 3 7 1 7 -6 0 -6 -5 -58 -103 -115 -217 -96 -189 -106 -204 -111
-175 -9 48 -16 209 -21 479 -6 312 -15 440 -39 593 -7 42 -25 115 -29 114 -1
0 -13 -12 -26 -27z"/>
<path d="M7865 10439 c-4 -6 -5 -12 -2 -15 2 -3 7 2 10 11 7 17 1 20 -8 4z"/>
</g>
</svg>
